<svg width="261" height="64" viewBox="0 0 261 64" fill="none" xmlns="http://www.w3.org/2000/svg">
<path d="M1.65057 16L2.67472 13.1165H6.79119L7.81534 16H9.10795L5.36932 5.81818H4.09659L0.357955 16H1.65057ZM3.0625 12.0227L4.69318 7.42898H4.77273L6.40341 12.0227H3.0625ZM20.7166 8.36364H19.4439L17.3359 14.4489H17.2564L15.1484 8.36364H13.8757L16.6996 16H17.8928L20.7166 8.36364ZM22.2653 16H23.4386V8.36364H22.2653V16ZM22.8619 7.09091C23.3192 7.09091 23.6971 6.73295 23.6971 6.29545C23.6971 5.85795 23.3192 5.5 22.8619 5.5C22.4045 5.5 22.0266 5.85795 22.0266 6.29545C22.0266 6.73295 22.4045 7.09091 22.8619 7.09091ZM28.4711 16.1591C29.9426 16.1591 30.4398 15.2443 30.6983 14.8267H30.8375V16H31.9711V5.81818H30.7978V9.5767H30.6983C30.4398 9.17898 29.9824 8.2642 28.4909 8.2642C26.562 8.2642 25.2296 9.79545 25.2296 12.2017C25.2296 14.6278 26.562 16.1591 28.4711 16.1591ZM28.6301 15.1051C27.1586 15.1051 26.4029 13.8125 26.4029 12.1818C26.4029 10.571 27.1387 9.31818 28.6301 9.31818C30.062 9.31818 30.8176 10.4716 30.8176 12.1818C30.8176 13.9119 30.0421 15.1051 28.6301 15.1051ZM36.53 16.179C37.8624 16.179 38.5584 15.4631 38.7971 14.9659H38.8567V16H40.03V10.9688C40.03 8.54261 38.1806 8.2642 37.2061 8.2642C36.0527 8.2642 34.7402 8.66193 34.1436 10.054L35.2573 10.4517C35.5158 9.89489 36.1273 9.2983 37.2459 9.2983C38.3248 9.2983 38.8567 9.87003 38.8567 10.8494V10.8892C38.8567 11.456 38.28 11.4062 36.888 11.5852C35.4711 11.7692 33.9249 12.0824 33.9249 13.8324C33.9249 15.3239 35.0783 16.179 36.53 16.179ZM36.709 15.125C35.7743 15.125 35.0982 14.7074 35.0982 13.892C35.0982 12.9972 35.9135 12.7188 36.8283 12.5994C37.3255 12.5398 38.6578 12.4006 38.8567 12.1619V13.2358C38.8567 14.1903 38.101 15.125 36.709 15.125ZM49.3107 16.1591C50.8619 16.1591 51.9954 15.3835 52.3533 14.2301L51.2198 13.9119C50.9215 14.7074 50.2305 15.1051 49.3107 15.1051C47.9336 15.1051 46.984 14.2152 46.9293 12.5795H52.4727V12.0824C52.4727 9.23864 50.7823 8.2642 49.1914 8.2642C47.1232 8.2642 45.7511 9.89489 45.7511 12.2415C45.7511 14.5881 47.1033 16.1591 49.3107 16.1591ZM46.9293 11.5653C47.0089 10.3771 47.8491 9.31818 49.1914 9.31818C50.4641 9.31818 51.2795 10.2727 51.2795 11.5653H46.9293ZM48.5948 7.32955H49.6289L51.18 5.02273H49.8079L48.5948 7.32955ZM61.2972 16.1591C62.9876 16.1591 64.1012 15.125 64.3001 13.7727H63.1268C62.908 14.608 62.212 15.1051 61.2972 15.1051C59.9052 15.1051 59.0103 13.9517 59.0103 12.1818C59.0103 10.4517 59.9251 9.31818 61.2972 9.31818C62.3313 9.31818 62.9478 9.95455 63.1268 10.6506H64.3001C64.1012 9.21875 62.8881 8.2642 61.2773 8.2642C59.2092 8.2642 57.837 9.89489 57.837 12.2216C57.837 14.5085 59.1495 16.1591 61.2972 16.1591ZM69.1175 16.1591C71.1857 16.1591 72.5778 14.5881 72.5778 12.2216C72.5778 9.83523 71.1857 8.2642 69.1175 8.2642C67.0494 8.2642 65.6573 9.83523 65.6573 12.2216C65.6573 14.5881 67.0494 16.1591 69.1175 16.1591ZM69.1175 15.1051C67.5465 15.1051 66.8306 13.7528 66.8306 12.2216C66.8306 10.6903 67.5465 9.31818 69.1175 9.31818C70.6886 9.31818 71.4045 10.6903 71.4045 12.2216C71.4045 13.7528 70.6886 15.1051 69.1175 15.1051ZM74.3688 16H75.5421V11.2273C75.5421 10.1087 76.3574 9.31818 77.2722 9.31818C78.1621 9.31818 78.7836 9.89986 78.7836 10.7699V16H79.9767V11.0284C79.9767 10.044 80.5932 9.31818 81.6671 9.31818C82.5023 9.31818 83.2182 9.76065 83.2182 10.8892V16H84.3915V10.8892C84.3915 9.09446 83.427 8.2642 82.0648 8.2642C80.9711 8.2642 80.1706 8.76633 79.7779 9.55682H79.6983C79.3205 8.74148 78.6543 8.2642 77.65 8.2642C76.6557 8.2642 75.9199 8.74148 75.6017 9.55682H75.5023V8.36364H74.3688V16ZM89.639 16.1591C91.7072 16.1591 93.0993 14.5881 93.0993 12.2216C93.0993 9.83523 91.7072 8.2642 89.639 8.2642C87.5708 8.2642 86.1788 9.83523 86.1788 12.2216C86.1788 14.5881 87.5708 16.1591 89.639 16.1591ZM89.639 15.1051C88.068 15.1051 87.3521 13.7528 87.3521 12.2216C87.3521 10.6903 88.068 9.31818 89.639 9.31818C91.21 9.31818 91.926 10.6903 91.926 12.2216C91.926 13.7528 91.21 15.1051 89.639 15.1051ZM103.64 12.8778C103.64 14.3097 102.547 14.9659 101.672 14.9659C100.697 14.9659 100.001 14.25 100.001 13.1364V8.36364H98.8278V13.2159C98.8278 15.1648 99.8619 16.0994 101.294 16.0994C102.447 16.0994 103.203 15.483 103.561 14.7074H103.64V16H104.814V8.36364H103.64V12.8778ZM106.963 16H108.136V11.2273C108.136 10.1087 108.951 9.31818 109.866 9.31818C110.756 9.31818 111.377 9.89986 111.377 10.7699V16H112.57V11.0284C112.57 10.044 113.187 9.31818 114.261 9.31818C115.096 9.31818 115.812 9.76065 115.812 10.8892V16H116.985V10.8892C116.985 9.09446 116.021 8.2642 114.659 8.2642C113.565 8.2642 112.764 8.76633 112.372 9.55682H112.292C111.914 8.74148 111.248 8.2642 110.244 8.2642C109.249 8.2642 108.514 8.74148 108.195 9.55682H108.096V8.36364H106.963V16ZM128.477 10.0739C128.109 8.99006 127.284 8.2642 125.773 8.2642C124.162 8.2642 122.969 9.17898 122.969 10.4716C122.969 11.5256 123.595 12.2315 124.997 12.5597L126.27 12.858C127.04 13.0369 127.403 13.4048 127.403 13.9318C127.403 14.5881 126.707 15.125 125.613 15.125C124.654 15.125 124.052 14.7124 123.844 13.892L122.73 14.1705C123.003 15.468 124.072 16.1591 125.633 16.1591C127.408 16.1591 128.616 15.1896 128.616 13.8722C128.616 12.8082 127.95 12.1371 126.588 11.804L125.454 11.5256C124.55 11.3018 124.142 10.9986 124.142 10.4119C124.142 9.75568 124.838 9.27841 125.773 9.27841C126.797 9.27841 127.219 9.84517 127.423 10.3722L128.477 10.0739ZM132.63 16.179C133.962 16.179 134.658 15.4631 134.897 14.9659H134.956V16H136.13V10.9688C136.13 8.54261 134.28 8.2642 133.306 8.2642C132.152 8.2642 130.84 8.66193 130.243 10.054L131.357 10.4517C131.615 9.89489 132.227 9.2983 133.346 9.2983C134.424 9.2983 134.956 9.87003 134.956 10.8494V10.8892C134.956 11.456 134.38 11.4062 132.988 11.5852C131.571 11.7692 130.025 12.0824 130.025 13.8324C130.025 15.3239 131.178 16.179 132.63 16.179ZM132.809 15.125C131.874 15.125 131.198 14.7074 131.198 13.892C131.198 12.9972 132.013 12.7188 132.928 12.5994C133.425 12.5398 134.757 12.4006 134.956 12.1619V13.2358C134.956 14.1903 134.201 15.125 132.809 15.125ZM139.444 11.4062C139.444 10.0739 140.27 9.31818 141.393 9.31818C142.482 9.31818 143.143 10.0291 143.143 11.2273V16H144.317V11.1477C144.317 9.19886 143.278 8.2642 141.731 8.2642C140.578 8.2642 139.862 8.78125 139.504 9.55682H139.405V8.36364H138.271V16H139.444V11.4062ZM149.344 16.1591C150.816 16.1591 151.313 15.2443 151.571 14.8267H151.711V16H152.844V5.81818H151.671V9.5767H151.571C151.313 9.17898 150.855 8.2642 149.364 8.2642C147.435 8.2642 146.103 9.79545 146.103 12.2017C146.103 14.6278 147.435 16.1591 149.344 16.1591ZM149.503 15.1051C148.032 15.1051 147.276 13.8125 147.276 12.1818C147.276 10.571 148.012 9.31818 149.503 9.31818C150.935 9.31818 151.691 10.4716 151.691 12.1818C151.691 13.9119 150.915 15.1051 149.503 15.1051ZM159.968 12.8778C159.968 14.3097 158.875 14.9659 158 14.9659C157.025 14.9659 156.329 14.25 156.329 13.1364V8.36364H155.156V13.2159C155.156 15.1648 156.19 16.0994 157.622 16.0994C158.775 16.0994 159.531 15.483 159.889 14.7074H159.968V16H161.142V8.36364H159.968V12.8778ZM163.291 16H164.464V8.36364H163.291V16ZM163.35 7.32955H164.384L165.936 5.02273H164.563L163.35 7.32955ZM169.715 16.1591C171.406 16.1591 172.519 15.125 172.718 13.7727H171.545C171.326 14.608 170.63 15.1051 169.715 15.1051C168.323 15.1051 167.428 13.9517 167.428 12.1818C167.428 10.4517 168.343 9.31818 169.715 9.31818C170.749 9.31818 171.366 9.95455 171.545 10.6506H172.718C172.519 9.21875 171.306 8.2642 169.695 8.2642C167.627 8.2642 166.255 9.89489 166.255 12.2216C166.255 14.5085 167.567 16.1591 169.715 16.1591ZM175.607 11.4062C175.607 10.0739 176.457 9.31818 177.615 9.31818C178.719 9.31818 179.385 10.0142 179.385 11.2273V16H180.558V11.1477C180.558 9.18395 179.514 8.2642 177.953 8.2642C176.75 8.2642 176.064 8.76633 175.706 9.55682H175.607V5.81818H174.433V16H175.607V11.4062ZM185.906 16.1591C187.458 16.1591 188.591 15.3835 188.949 14.2301L187.816 13.9119C187.517 14.7074 186.826 15.1051 185.906 15.1051C184.529 15.1051 183.58 14.2152 183.525 12.5795H189.068V12.0824C189.068 9.23864 187.378 8.2642 185.787 8.2642C183.719 8.2642 182.347 9.89489 182.347 12.2415C182.347 14.5881 183.699 16.1591 185.906 16.1591ZM183.525 11.5653C183.605 10.3771 184.445 9.31818 185.787 9.31818C187.06 9.31818 187.875 10.2727 187.875 11.5653H183.525ZM192.603 14.608H191.33L191.271 15.1648C191.127 16.5121 190.843 17.8544 190.714 18.4858H191.609C191.847 17.8097 192.355 16.2784 192.524 15.1449L192.603 14.608ZM201.916 16.1591C203.467 16.1591 204.601 15.3835 204.959 14.2301L203.825 13.9119C203.527 14.7074 202.836 15.1051 201.916 15.1051C200.539 15.1051 199.589 14.2152 199.535 12.5795H205.078V12.0824C205.078 9.23864 203.388 8.2642 201.797 8.2642C199.729 8.2642 198.357 9.89489 198.357 12.2415C198.357 14.5881 199.709 16.1591 201.916 16.1591ZM199.535 11.5653C199.614 10.3771 200.455 9.31818 201.797 9.31818C203.07 9.31818 203.885 10.2727 203.885 11.5653H199.535ZM201.2 7.32955H202.234L203.786 5.02273H202.413L201.2 7.32955ZM210.8 18.8636H211.974V14.8267H212.073C212.332 15.2443 212.829 16.1591 214.3 16.1591C216.21 16.1591 217.542 14.6278 217.542 12.2017C217.542 9.79545 216.21 8.2642 214.281 8.2642C212.789 8.2642 212.332 9.17898 212.073 9.5767H211.934V8.36364H210.8V18.8636ZM211.954 12.1818C211.954 10.4716 212.71 9.31818 214.141 9.31818C215.633 9.31818 216.369 10.571 216.369 12.1818C216.369 13.8125 215.613 15.1051 214.141 15.1051C212.729 15.1051 211.954 13.9119 211.954 12.1818ZM219.332 16H220.505V11.1676C220.505 10.1335 221.32 9.37784 222.434 9.37784C222.747 9.37784 223.07 9.4375 223.15 9.45739V8.2642C223.016 8.25426 222.707 8.24432 222.533 8.24432C221.619 8.24432 220.823 8.76136 220.545 9.51705H220.465V8.36364H219.332V16ZM227.51 16.1591C229.061 16.1591 230.195 15.3835 230.553 14.2301L229.419 13.9119C229.121 14.7074 228.43 15.1051 227.51 15.1051C226.133 15.1051 225.183 14.2152 225.129 12.5795H230.672V12.0824C230.672 9.23864 228.982 8.2642 227.391 8.2642C225.322 8.2642 223.95 9.89489 223.95 12.2415C223.95 14.5881 225.303 16.1591 227.51 16.1591ZM225.129 11.5653C225.208 10.3771 226.048 9.31818 227.391 9.31818C228.663 9.31818 229.479 10.2727 229.479 11.5653H225.129ZM235.559 16.1591C237.249 16.1591 238.363 15.125 238.562 13.7727H237.388C237.17 14.608 236.474 15.1051 235.559 15.1051C234.167 15.1051 233.272 13.9517 233.272 12.1818C233.272 10.4517 234.187 9.31818 235.559 9.31818C236.593 9.31818 237.21 9.95455 237.388 10.6506H238.562C238.363 9.21875 237.15 8.2642 235.539 8.2642C233.471 8.2642 232.099 9.89489 232.099 12.2216C232.099 14.5085 233.411 16.1591 235.559 16.1591ZM240.277 16H241.45V8.36364H240.277V16ZM240.874 7.09091C241.331 7.09091 241.709 6.73295 241.709 6.29545C241.709 5.85795 241.331 5.5 240.874 5.5C240.416 5.5 240.038 5.85795 240.038 6.29545C240.038 6.73295 240.416 7.09091 240.874 7.09091ZM249.008 10.0739C248.64 8.99006 247.815 8.2642 246.304 8.2642C244.693 8.2642 243.5 9.17898 243.5 10.4716C243.5 11.5256 244.126 12.2315 245.528 12.5597L246.801 12.858C247.572 13.0369 247.934 13.4048 247.934 13.9318C247.934 14.5881 247.238 15.125 246.145 15.125C245.185 15.125 244.584 14.7124 244.375 13.892L243.261 14.1705C243.535 15.468 244.604 16.1591 246.165 16.1591C247.939 16.1591 249.148 15.1896 249.148 13.8722C249.148 12.8082 248.481 12.1371 247.119 11.804L245.986 11.5256C245.081 11.3018 244.673 10.9986 244.673 10.4119C244.673 9.75568 245.369 9.27841 246.304 9.27841C247.328 9.27841 247.751 9.84517 247.954 10.3722L249.008 10.0739ZM254.016 16.1591C256.084 16.1591 257.476 14.5881 257.476 12.2216C257.476 9.83523 256.084 8.2642 254.016 8.2642C251.948 8.2642 250.556 9.83523 250.556 12.2216C250.556 14.5881 251.948 16.1591 254.016 16.1591ZM254.016 15.1051C252.445 15.1051 251.729 13.7528 251.729 12.2216C251.729 10.6903 252.445 9.31818 254.016 9.31818C255.587 9.31818 256.303 10.6903 256.303 12.2216C256.303 13.7528 255.587 15.1051 254.016 15.1051ZM1.07386 38H2.24716V33.1676C2.24716 32.1335 3.0625 31.3778 4.17614 31.3778C4.48935 31.3778 4.8125 31.4375 4.89205 31.4574V30.2642C4.75781 30.2543 4.44957 30.2443 4.27557 30.2443C3.3608 30.2443 2.56534 30.7614 2.28693 31.517H2.20739V30.3636H1.07386V38ZM9.25213 38.1591C10.8033 38.1591 11.9368 37.3835 12.2947 36.2301L11.1612 35.9119C10.8629 36.7074 10.1719 37.1051 9.25213 37.1051C7.875 37.1051 6.92543 36.2152 6.87074 34.5795H12.4141V34.0824C12.4141 31.2386 10.7237 30.2642 9.13281 30.2642C7.06463 30.2642 5.69247 31.8949 5.69247 34.2415C5.69247 36.5881 7.04474 38.1591 9.25213 38.1591ZM6.87074 33.5653C6.95028 32.3771 7.79048 31.3182 9.13281 31.3182C10.4055 31.3182 11.2209 32.2727 11.2209 33.5653H6.87074ZM17.3011 38.1591C18.9915 38.1591 20.1051 37.125 20.304 35.7727H19.1307C18.9119 36.608 18.2159 37.1051 17.3011 37.1051C15.9091 37.1051 15.0142 35.9517 15.0142 34.1818C15.0142 32.4517 15.929 31.3182 17.3011 31.3182C18.3352 31.3182 18.9517 31.9545 19.1307 32.6506H20.304C20.1051 31.2188 18.892 30.2642 17.2812 30.2642C15.2131 30.2642 13.8409 31.8949 13.8409 34.2216C13.8409 36.5085 15.1534 38.1591 17.3011 38.1591ZM23.1925 33.4062C23.1925 32.0739 24.0426 31.3182 25.201 31.3182C26.3047 31.3182 26.9709 32.0142 26.9709 33.2273V38H28.1442V33.1477C28.1442 31.1839 27.1001 30.2642 25.5391 30.2642C24.3359 30.2642 23.6499 30.7663 23.2919 31.5568H23.1925V27.8182H22.0192V38H23.1925V33.4062ZM33.4924 38.1591C35.0435 38.1591 36.177 37.3835 36.535 36.2301L35.4015 35.9119C35.1032 36.7074 34.4121 37.1051 33.4924 37.1051C32.1152 37.1051 31.1657 36.2152 31.111 34.5795H36.6543V34.0824C36.6543 31.2386 34.964 30.2642 33.373 30.2642C31.3049 30.2642 29.9327 31.8949 29.9327 34.2415C29.9327 36.5881 31.285 38.1591 33.4924 38.1591ZM31.111 33.5653C31.1905 32.3771 32.0307 31.3182 33.373 31.3182C34.6458 31.3182 35.4611 32.2727 35.4611 33.5653H31.111ZM40.6863 38.179C42.0186 38.179 42.7147 37.4631 42.9533 36.9659H43.013V38H44.1863V32.9688C44.1863 30.5426 42.3368 30.2642 41.3624 30.2642C40.209 30.2642 38.8965 30.6619 38.2999 32.054L39.4135 32.4517C39.6721 31.8949 40.2836 31.2983 41.4022 31.2983C42.481 31.2983 43.013 31.87 43.013 32.8494V32.8892C43.013 33.456 42.4363 33.4062 41.0442 33.5852C39.6273 33.7692 38.0811 34.0824 38.0811 35.8324C38.0811 37.3239 39.2346 38.179 40.6863 38.179ZM40.8652 37.125C39.9306 37.125 39.2544 36.7074 39.2544 35.892C39.2544 34.9972 40.0698 34.7188 40.9846 34.5994C41.4817 34.5398 42.8141 34.4006 43.013 34.1619V35.2358C43.013 36.1903 42.2573 37.125 40.8652 37.125ZM40.905 29.3295H41.9391L43.4902 27.0227H42.1181L40.905 29.3295ZM50.7028 33.0881H46.2482V34.1818H50.7028V33.0881ZM53.9405 27.8182H52.7672V38H53.9405V27.8182ZM58.3366 38.179C59.669 38.179 60.3651 37.4631 60.6037 36.9659H60.6634V38H61.8366V32.9688C61.8366 30.5426 59.9872 30.2642 59.0128 30.2642C57.8594 30.2642 56.5469 30.6619 55.9503 32.054L57.0639 32.4517C57.3224 31.8949 57.9339 31.2983 59.0526 31.2983C60.1314 31.2983 60.6634 31.87 60.6634 32.8494V32.8892C60.6634 33.456 60.0866 33.4062 58.6946 33.5852C57.2777 33.7692 55.7315 34.0824 55.7315 35.8324C55.7315 37.3239 56.8849 38.179 58.3366 38.179ZM58.5156 37.125C57.581 37.125 56.9048 36.7074 56.9048 35.892C56.9048 34.9972 57.7202 34.7188 58.6349 34.5994C59.1321 34.5398 60.4645 34.4006 60.6634 34.1619V35.2358C60.6634 36.1903 59.9077 37.125 58.5156 37.125ZM71.0179 38.1591C72.7083 38.1591 73.8219 37.125 74.0208 35.7727H72.8475C72.6287 36.608 71.9327 37.1051 71.0179 37.1051C69.6259 37.1051 68.731 35.9517 68.731 34.1818C68.731 32.4517 69.6458 31.3182 71.0179 31.3182C72.052 31.3182 72.6685 31.9545 72.8475 32.6506H74.0208C73.8219 31.2188 72.6088 30.2642 70.998 30.2642C68.9299 30.2642 67.5577 31.8949 67.5577 34.2216C67.5577 36.5085 68.8702 38.1591 71.0179 38.1591ZM78.8382 38.1591C80.9064 38.1591 82.2985 36.5881 82.2985 34.2216C82.2985 31.8352 80.9064 30.2642 78.8382 30.2642C76.7701 30.2642 75.378 31.8352 75.378 34.2216C75.378 36.5881 76.7701 38.1591 78.8382 38.1591ZM78.8382 37.1051C77.2672 37.1051 76.5513 35.7528 76.5513 34.2216C76.5513 32.6903 77.2672 31.3182 78.8382 31.3182C80.4093 31.3182 81.1252 32.6903 81.1252 34.2216C81.1252 35.7528 80.4093 37.1051 78.8382 37.1051ZM84.0895 38H85.2628V33.2273C85.2628 32.1087 86.0781 31.3182 86.9929 31.3182C87.8828 31.3182 88.5043 31.8999 88.5043 32.7699V38H89.6974V33.0284C89.6974 32.044 90.3139 31.3182 91.3878 31.3182C92.223 31.3182 92.9389 31.7607 92.9389 32.8892V38H94.1122V32.8892C94.1122 31.0945 93.1477 30.2642 91.7855 30.2642C90.6918 30.2642 89.8913 30.7663 89.4986 31.5568H89.419C89.0412 30.7415 88.375 30.2642 87.3707 30.2642C86.3764 30.2642 85.6406 30.7415 85.3224 31.5568H85.223V30.3636H84.0895V38ZM103.297 38.1591C105.365 38.1591 106.757 36.5881 106.757 34.2216C106.757 31.8352 105.365 30.2642 103.297 30.2642C101.229 30.2642 99.837 31.8352 99.837 34.2216C99.837 36.5881 101.229 38.1591 103.297 38.1591ZM103.297 37.1051C101.726 37.1051 101.01 35.7528 101.01 34.2216C101.01 32.6903 101.726 31.3182 103.297 31.3182C104.868 31.3182 105.584 32.6903 105.584 34.2216C105.584 35.7528 104.868 37.1051 103.297 37.1051ZM113.958 32.0739C113.59 30.9901 112.764 30.2642 111.253 30.2642C109.642 30.2642 108.449 31.179 108.449 32.4716C108.449 33.5256 109.075 34.2315 110.477 34.5597L111.75 34.858C112.521 35.0369 112.884 35.4048 112.884 35.9318C112.884 36.5881 112.188 37.125 111.094 37.125C110.134 37.125 109.533 36.7124 109.324 35.892L108.21 36.1705C108.484 37.468 109.553 38.1591 111.114 38.1591C112.889 38.1591 114.097 37.1896 114.097 35.8722C114.097 34.8082 113.431 34.1371 112.068 33.804L110.935 33.5256C110.03 33.3018 109.622 32.9986 109.622 32.4119C109.622 31.7557 110.318 31.2784 111.253 31.2784C112.277 31.2784 112.7 31.8452 112.904 32.3722L113.958 32.0739ZM1.07386 60H2.24716V52.3636H1.07386V60ZM1.67045 51.0909C2.12784 51.0909 2.50568 50.733 2.50568 50.2955C2.50568 49.858 2.12784 49.5 1.67045 49.5C1.21307 49.5 0.835227 49.858 0.835227 50.2955C0.835227 50.733 1.21307 51.0909 1.67045 51.0909ZM5.56942 55.4062C5.56942 54.0739 6.39471 53.3182 7.51829 53.3182C8.60707 53.3182 9.26829 54.0291 9.26829 55.2273V60H10.4416V55.1477C10.4416 53.1989 9.40252 52.2642 7.85636 52.2642C6.70295 52.2642 5.98704 52.7812 5.62908 53.5568H5.52965V52.3636H4.39613V60H5.56942V55.4062ZM15.668 63.0227C17.4975 63.0227 18.9691 62.1875 18.9691 60.2188V52.3636H17.8356V53.5767H17.7163C17.4577 53.179 16.9805 52.2642 15.489 52.2642C13.56 52.2642 12.2276 53.7955 12.2276 56.142C12.2276 58.5284 13.6197 59.8807 15.4691 59.8807C16.9606 59.8807 17.4379 59.0057 17.6964 58.5881H17.7958V60.1392C17.7958 61.4119 16.9009 61.9886 15.668 61.9886C14.2809 61.9886 13.7937 61.2578 13.4805 60.8352L12.5458 61.4915C13.0231 62.2919 13.9627 63.0227 15.668 63.0227ZM15.6282 58.8267C14.1566 58.8267 13.4009 57.7131 13.4009 56.1222C13.4009 54.571 14.1367 53.3182 15.6282 53.3182C17.06 53.3182 17.8157 54.4716 17.8157 56.1222C17.8157 57.8125 17.0401 58.8267 15.6282 58.8267ZM21.1168 60H22.2901V55.1676C22.2901 54.1335 23.1055 53.3778 24.2191 53.3778C24.5323 53.3778 24.8555 53.4375 24.935 53.4574V52.2642C24.8008 52.2543 24.4925 52.2443 24.3185 52.2443C23.4038 52.2443 22.6083 52.7614 22.3299 53.517H22.2504V52.3636H21.1168V60ZM29.2951 60.1591C30.8462 60.1591 31.9798 59.3835 32.3377 58.2301L31.2042 57.9119C30.9059 58.7074 30.2148 59.1051 29.2951 59.1051C27.918 59.1051 26.9684 58.2152 26.9137 56.5795H32.457V56.0824C32.457 53.2386 30.7667 52.2642 29.1758 52.2642C27.1076 52.2642 25.7354 53.8949 25.7354 56.2415C25.7354 58.5881 27.0877 60.1591 29.2951 60.1591ZM26.9137 55.5653C26.9933 54.3771 27.8335 53.3182 29.1758 53.3182C30.4485 53.3182 31.2638 54.2727 31.2638 55.5653H26.9137ZM37.1254 60.1591C38.5969 60.1591 39.0941 59.2443 39.3526 58.8267H39.4918V60H40.6254V49.8182H39.4521V53.5767H39.3526C39.0941 53.179 38.6367 52.2642 37.1452 52.2642C35.2163 52.2642 33.8839 53.7955 33.8839 56.2017C33.8839 58.6278 35.2163 60.1591 37.1254 60.1591ZM37.2844 59.1051C35.8129 59.1051 35.0572 57.8125 35.0572 56.1818C35.0572 54.571 35.793 53.3182 37.2844 53.3182C38.7163 53.3182 39.4719 54.4716 39.4719 56.1818C39.4719 57.9119 38.6964 59.1051 37.2844 59.1051ZM42.9371 60H44.1104V52.3636H42.9371V60ZM43.5337 51.0909C43.9911 51.0909 44.369 50.733 44.369 50.2955C44.369 49.858 43.9911 49.5 43.5337 49.5C43.0763 49.5 42.6985 49.858 42.6985 50.2955C42.6985 50.733 43.0763 51.0909 43.5337 51.0909ZM49.4611 60.1591C51.0123 60.1591 52.1458 59.3835 52.5037 58.2301L51.3702 57.9119C51.0719 58.7074 50.3809 59.1051 49.4611 59.1051C48.084 59.1051 47.1344 58.2152 47.0797 56.5795H52.623V56.0824C52.623 53.2386 50.9327 52.2642 49.3418 52.2642C47.2736 52.2642 45.9015 53.8949 45.9015 56.2415C45.9015 58.5881 47.2537 60.1591 49.4611 60.1591ZM47.0797 55.5653C47.1593 54.3771 47.9995 53.3182 49.3418 53.3182C50.6145 53.3182 51.4299 54.2727 51.4299 55.5653H47.0797ZM55.5811 55.4062C55.5811 54.0739 56.4064 53.3182 57.53 53.3182C58.6188 53.3182 59.28 54.0291 59.28 55.2273V60H60.4533V55.1477C60.4533 53.1989 59.4142 52.2642 57.8681 52.2642C56.7147 52.2642 55.9988 52.7812 55.6408 53.5568H55.5414V52.3636H54.4078V60H55.5811V55.4062ZM65.9183 52.3636H64.2876V50.5341H63.1143V52.3636H61.9609V53.358H63.1143V58.1307C63.1143 59.4631 64.1882 60.0994 65.1825 60.0994C65.62 60.0994 65.8984 60.0199 66.0575 59.9602L65.8189 58.9062C65.7195 58.9261 65.5604 58.9659 65.3018 58.9659C64.7848 58.9659 64.2876 58.8068 64.2876 57.8125V53.358H65.9183V52.3636ZM70.8029 60.1591C72.354 60.1591 73.4876 59.3835 73.8455 58.2301L72.712 57.9119C72.4137 58.7074 71.7227 59.1051 70.8029 59.1051C69.4258 59.1051 68.4762 58.2152 68.4215 56.5795H73.9648V56.0824C73.9648 53.2386 72.2745 52.2642 70.6836 52.2642C68.6154 52.2642 67.2433 53.8949 67.2433 56.2415C67.2433 58.5881 68.5955 60.1591 70.8029 60.1591ZM68.4215 55.5653C68.5011 54.3771 69.3413 53.3182 70.6836 53.3182C71.9563 53.3182 72.7717 54.2727 72.7717 55.5653H68.4215ZM81.1587 54.0739C80.7908 52.9901 79.9656 52.2642 78.4542 52.2642C76.8434 52.2642 75.6502 53.179 75.6502 54.4716C75.6502 55.5256 76.2766 56.2315 77.6786 56.5597L78.9513 56.858C79.7219 57.0369 80.0849 57.4048 80.0849 57.9318C80.0849 58.5881 79.3888 59.125 78.2951 59.125C77.3356 59.125 76.734 58.7124 76.5252 57.892L75.4116 58.1705C75.685 59.468 76.7539 60.1591 78.315 60.1591C80.0898 60.1591 81.2979 59.1896 81.2979 57.8722C81.2979 56.8082 80.6317 56.1371 79.2695 55.804L78.136 55.5256C77.2312 55.3018 76.8235 54.9986 76.8235 54.4119C76.8235 53.7557 77.5195 53.2784 78.4542 53.2784C79.4783 53.2784 79.9009 53.8452 80.1048 54.3722L81.1587 54.0739ZM83.9192 60.0795C84.4114 60.0795 84.8141 59.6768 84.8141 59.1847C84.8141 58.6925 84.4114 58.2898 83.9192 58.2898C83.427 58.2898 83.0243 58.6925 83.0243 59.1847C83.0243 59.6768 83.427 60.0795 83.9192 60.0795Z" fill="#828282"/>
<path d="M119.726 38H121.212V33.2919C121.212 32.2628 121.933 31.5469 122.778 31.5469C123.604 31.5469 124.175 32.0938 124.175 32.924V38H125.657V33.1328C125.657 32.2131 126.219 31.5469 127.188 31.5469C127.974 31.5469 128.62 31.9844 128.62 33.0185V38H130.107V32.8793C130.107 31.1342 129.132 30.2642 127.75 30.2642C126.651 30.2642 125.826 30.7912 125.458 31.6065H125.379C125.045 30.7713 124.344 30.2642 123.325 30.2642C122.316 30.2642 121.565 30.7663 121.247 31.6065H121.153V30.3636H119.726V38ZM135.39 38.1541C137.056 38.1541 138.234 37.3338 138.572 36.0909L137.165 35.8374C136.896 36.5582 136.25 36.9261 135.405 36.9261C134.132 36.9261 133.277 36.1009 133.237 34.6293H138.666V34.1023C138.666 31.343 137.016 30.2642 135.286 30.2642C133.158 30.2642 131.756 31.8849 131.756 34.2315C131.756 36.603 133.138 38.1541 135.39 38.1541ZM133.242 33.5156C133.302 32.4318 134.088 31.4922 135.296 31.4922C136.449 31.4922 137.205 32.3473 137.21 33.5156H133.242ZM141.802 27.8182H140.316V38H141.802V27.8182ZM145.289 33.4659C145.289 32.2479 146.059 31.5518 147.118 31.5518C148.142 31.5518 148.754 32.2031 148.754 33.3217V38H150.24V33.1428C150.24 31.2386 149.196 30.2642 147.625 30.2642C146.437 30.2642 145.721 30.7812 145.363 31.6065H145.269V27.8182H143.802V38H145.289V33.4659ZM155.441 38.1541C157.593 38.1541 159 36.5781 159 34.2166C159 31.8402 157.593 30.2642 155.441 30.2642C153.288 30.2642 151.881 31.8402 151.881 34.2166C151.881 36.5781 153.288 38.1541 155.441 38.1541ZM155.445 36.9062C154.039 36.9062 153.382 35.6783 153.382 34.2116C153.382 32.75 154.039 31.5071 155.445 31.5071C156.843 31.5071 157.499 32.75 157.499 34.2116C157.499 35.6783 156.843 36.9062 155.445 36.9062ZM160.659 38H162.146V33.3366C162.146 32.3374 162.917 31.6165 163.971 31.6165C164.279 31.6165 164.627 31.6712 164.746 31.706V30.2841C164.597 30.2642 164.304 30.2493 164.115 30.2493C163.22 30.2493 162.454 30.7564 162.176 31.5767H162.096V30.3636H160.659V38ZM169.05 38.1541C170.716 38.1541 171.894 37.3338 172.232 36.0909L170.825 35.8374C170.557 36.5582 169.91 36.9261 169.065 36.9261C167.792 36.9261 166.937 36.1009 166.898 34.6293H172.327V34.1023C172.327 31.343 170.676 30.2642 168.946 30.2642C166.818 30.2642 165.416 31.8849 165.416 34.2315C165.416 36.603 166.798 38.1541 169.05 38.1541ZM166.903 33.5156C166.962 32.4318 167.748 31.4922 168.956 31.4922C170.109 31.4922 170.865 32.3473 170.87 33.5156H166.903ZM179.698 32.228C179.39 31.0398 178.46 30.2642 176.81 30.2642C175.085 30.2642 173.862 31.174 173.862 32.5263C173.862 33.6101 174.518 34.331 175.95 34.6491L177.242 34.9325C177.978 35.0966 178.321 35.4247 178.321 35.902C178.321 36.4936 177.69 36.956 176.715 36.956C175.825 36.956 175.254 36.5732 175.075 35.8224L173.638 36.0412C173.886 37.3935 175.01 38.1541 176.725 38.1541C178.57 38.1541 179.847 37.1747 179.847 35.7926C179.847 34.7138 179.161 34.0476 177.759 33.7244L176.546 33.446C175.706 33.2472 175.343 32.9638 175.348 32.4467C175.343 31.8601 175.979 31.4425 176.825 31.4425C177.749 31.4425 178.177 31.9545 178.351 32.4666L179.698 32.228Z" fill="#333333"/>
</svg>
